<?xml version="1.0" encoding="UTF-8" standalone="no"?>
<!-- Created with Bouml (http://bouml.free.fr/) -->
<!DOCTYPE svg PUBLIC "-//W3C//DTD SVG 1.1//EN" "http://www.w3.org/Graphics/SVG/1.1/DTD/svg11.dtd">
<svg width="454" height="592" version="1.1" xmlns="http://www.w3.org/2000/svg">
<g>
	<polygon fill="#ffffff" stroke="black" stroke-opacity="1" points="147,1376 207,1376 207,1384 198,1393 147,1393 147,1376" />
	<rect fill="none" stroke="black" stroke-width="1" stroke-opacity="1" x="147" y="1376" width="513" height="384" />
	<text font-family="Helvetica" font-size="5" fill="#000000" xml:space="preserve" text-anchor="middle" x="173" y="1387">Decorator Bird</text>
	<line stroke="black" stroke-opacity="1" x1="147" y1="1393" x2="198" y2="1393" />
	<line stroke="black" stroke-opacity="1" x1="198" y1="1393" x2="207" y2="1384" />
	<line stroke="black" stroke-opacity="1" x1="207" y1="1384" x2="207" y2="1376" />
</g>
<g>
	<polygon fill="#ffffff" stroke="black" stroke-opacity="1" points="34,522 93,522 93,530 84,539 34,539 34,522" />
	<rect fill="none" stroke="black" stroke-width="1" stroke-opacity="1" x="34" y="522" width="284" height="524" />
	<text font-family="Helvetica" font-size="5" fill="#000000" xml:space="preserve" text-anchor="middle" x="59" y="533">Façade Entity</text>
	<line stroke="black" stroke-opacity="1" x1="34" y1="539" x2="84" y2="539" />
	<line stroke="black" stroke-opacity="1" x1="84" y1="539" x2="93" y2="530" />
	<line stroke="black" stroke-opacity="1" x1="93" y1="530" x2="93" y2="522" />
</g>
<g>
	<polygon fill="#ffffff" stroke="black" stroke-opacity="1" points="485,629 582,629 582,637 573,646 485,646 485,629" />
	<rect fill="none" stroke="black" stroke-width="1" stroke-opacity="1" x="485" y="629" width="276" height="521" />
	<text font-family="Helvetica" font-size="5" fill="#000000" xml:space="preserve" text-anchor="middle" x="529" y="640">Abstract factory Obstacle</text>
	<line stroke="black" stroke-opacity="1" x1="485" y1="646" x2="573" y2="646" />
	<line stroke="black" stroke-opacity="1" x1="573" y1="646" x2="582" y2="637" />
	<line stroke="black" stroke-opacity="1" x1="582" y1="637" x2="582" y2="629" />
</g>
<g>
	<polygon fill="#ffffff" stroke="black" stroke-opacity="1" points="165,1069 245,1069 245,1077 236,1086 165,1086 165,1069" />
	<rect fill="none" stroke="black" stroke-width="1" stroke-opacity="1" x="165" y="1069" width="207" height="414" />
	<text font-family="Helvetica" font-size="5" fill="#000000" xml:space="preserve" text-anchor="middle" x="201" y="1080">Abstract factory Bird</text>
	<line stroke="black" stroke-opacity="1" x1="165" y1="1086" x2="236" y2="1086" />
	<line stroke="black" stroke-opacity="1" x1="236" y1="1086" x2="245" y2="1077" />
	<line stroke="black" stroke-opacity="1" x1="245" y1="1077" x2="245" y2="1069" />
</g>
<g>
	<text font-family="Helvetica" font-size="5" fill="#000000" xml:space="preserve" x="331" y="1240">b</text>
</g>
<g>
	<text font-family="Helvetica" font-size="5" fill="#000000" xml:space="preserve" x="468" y="1419">modul</text>
</g>
<g>
	<text font-family="Helvetica" font-size="5" fill="#000000" xml:space="preserve" text-decoration="underline" x="331" y="1218">bird</text>
</g>
<g>
	<rect fill="#cbcbcb" stroke="none" stroke-opacity="1" x="306" y="1092" width="2" height="262" />
	<rect fill="#cbcbcb" stroke="none" stroke-opacity="1" x="238" y="1352" width="70" height="2" />
	<rect fill="#ffc0c0" stroke="black" stroke-width="1" stroke-opacity="1" x="235" y="1089" width="71" height="263" />
	<text font-family="Helvetica" font-size="5" fill="#000000" xml:space="preserve" font-weight="bold" text-anchor="middle" x="271" y="1095">Bird</text>
	<line stroke="black" stroke-opacity="1" x1="235" y1="1103" x2="306" y2="1103" />
	<text font-family="Helvetica" font-size="5" fill="#000000" xml:space="preserve" x="237" y="1109">a</text>
	<text font-family="Helvetica" font-size="5" fill="#000000" xml:space="preserve" x="237" y="1122">r</text>
	<text font-family="Helvetica" font-size="5" fill="#000000" xml:space="preserve" x="237" y="1135">birdCenterX</text>
	<text font-family="Helvetica" font-size="5" fill="#000000" xml:space="preserve" x="237" y="1148">birdCenterY</text>
	<text font-family="Helvetica" font-size="5" fill="#000000" xml:space="preserve" x="237" y="1161">corps</text>
	<line stroke="black" stroke-opacity="1" x1="235" y1="1169" x2="306" y2="1169" />
	<text font-family="Helvetica" font-size="5" fill="#000000" xml:space="preserve" x="237" y="1175">Bird()</text>
	<text font-family="Helvetica" font-size="5" fill="#000000" xml:space="preserve" x="237" y="1188">MinimalBirdFactory()</text>
	<text font-family="Helvetica" font-size="5" fill="#000000" xml:space="preserve" x="237" y="1201">getA()</text>
	<text font-family="Helvetica" font-size="5" fill="#000000" xml:space="preserve" x="237" y="1214">setA()</text>
	<text font-family="Helvetica" font-size="5" fill="#000000" xml:space="preserve" x="237" y="1227">getR()</text>
	<text font-family="Helvetica" font-size="5" fill="#000000" xml:space="preserve" x="237" y="1240">setCorps()</text>
	<text font-family="Helvetica" font-size="5" fill="#000000" xml:space="preserve" x="237" y="1253">getBirdCenterX()</text>
	<text font-family="Helvetica" font-size="5" fill="#000000" xml:space="preserve" x="237" y="1266">setBirdCenterX()</text>
	<text font-family="Helvetica" font-size="5" fill="#000000" xml:space="preserve" x="237" y="1279">getBirdCenterY()</text>
	<text font-family="Helvetica" font-size="5" fill="#000000" xml:space="preserve" x="237" y="1292">setBirdCenterY()</text>
	<text font-family="Helvetica" font-size="5" fill="#000000" xml:space="preserve" x="237" y="1305">drawAllModule()</text>
	<text font-family="Helvetica" font-size="5" fill="#000000" xml:space="preserve" x="237" y="1318">addModule()</text>
	<text font-family="Helvetica" font-size="5" fill="#000000" xml:space="preserve" x="237" y="1331">draw()</text>
	<text font-family="Helvetica" font-size="5" fill="#000000" xml:space="preserve" x="237" y="1344">move()</text>
</g>
<g>
	<line stroke="black" stroke-opacity="1" x1="309" y1="1228" x2="313" y2="1234" />
	<line stroke="black" stroke-opacity="1" x1="309" y1="1228" x2="315" y2="1223" />
	<line stroke="black" stroke-opacity="1" x1="575" y1="1272" x2="309" y2="1228" />
</g>
<g>
	<rect fill="#cbcbcb" stroke="none" stroke-opacity="1" x="253" y="1432" width="2" height="30" />
	<rect fill="#cbcbcb" stroke="none" stroke-opacity="1" x="207" y="1460" width="48" height="2" />
	<rect fill="#ffc0c0" stroke="black" stroke-width="1" stroke-opacity="1" x="204" y="1429" width="49" height="31" />
	<text font-family="Helvetica" font-size="5" fill="#000000" xml:space="preserve" font-weight="bold" text-anchor="middle" x="229" y="1435">RougeGorge</text>
	<line stroke="black" stroke-opacity="1" x1="204" y1="1443" x2="253" y2="1443" />
	<line stroke="black" stroke-opacity="1" x1="204" y1="1447" x2="253" y2="1447" />
	<text font-family="Helvetica" font-size="5" fill="#000000" xml:space="preserve" x="206" y="1453">RougeGorge()</text>
</g>
<g>
	<rect fill="#cbcbcb" stroke="none" stroke-opacity="1" x="334" y="1432" width="2" height="30" />
	<rect fill="#cbcbcb" stroke="none" stroke-opacity="1" x="306" y="1460" width="30" height="2" />
	<rect fill="#ffc0c0" stroke="black" stroke-width="1" stroke-opacity="1" x="303" y="1429" width="31" height="31" />
	<text font-family="Helvetica" font-size="5" fill="#000000" xml:space="preserve" font-weight="bold" text-anchor="middle" x="319" y="1435">Canard</text>
	<line stroke="black" stroke-opacity="1" x1="303" y1="1443" x2="334" y2="1443" />
	<line stroke="black" stroke-opacity="1" x1="303" y1="1447" x2="334" y2="1447" />
	<text font-family="Helvetica" font-size="5" fill="#000000" xml:space="preserve" x="305" y="1453">Canard()</text>
</g>
<g>
	<line stroke="#000000" stroke-opacity="1" x1="316" y1="1428" x2="300" y2="1360" />
	<line stroke="#000000" stroke-opacity="1" x1="299" y1="1355" x2="294" y2="1362" />
	<line stroke="#000000" stroke-opacity="1" x1="299" y1="1355" x2="306" y2="1359" />
	<line stroke="#000000" stroke-opacity="1" x1="294" y1="1362" x2="306" y2="1359" />
</g>
<g>
	<rect fill="#cbcbcb" stroke="none" stroke-opacity="1" x="531" y="1404" width="2" height="132" />
	<rect fill="#cbcbcb" stroke="none" stroke-opacity="1" x="467" y="1534" width="66" height="2" />
	<rect fill="#c0ffff" stroke="black" stroke-width="1" stroke-opacity="1" x="464" y="1401" width="67" height="133" />
	<text font-family="Helvetica" font-size="5" fill="#000000" xml:space="preserve" font-weight="bold" font-style="italic" text-anchor="middle" x="498" y="1407">ModuleBird</text>
	<line stroke="black" stroke-opacity="1" x1="464" y1="1415" x2="531" y2="1415" />
	<text font-family="Helvetica" font-size="5" fill="#000000" xml:space="preserve" x="466" y="1421">over</text>
	<text font-family="Helvetica" font-size="5" fill="#000000" xml:space="preserve" x="466" y="1434">distanceCentre</text>
	<line stroke="black" stroke-opacity="1" x1="464" y1="1442" x2="531" y2="1442" />
	<text font-family="Helvetica" font-size="5" fill="#000000" xml:space="preserve" x="466" y="1448">ModuleBird()</text>
	<text font-family="Helvetica" font-size="5" fill="#000000" xml:space="preserve" x="466" y="1461">getDistanceCentre()</text>
	<text font-family="Helvetica" font-size="5" fill="#000000" xml:space="preserve" x="466" y="1474">setDistanceCentre()</text>
	<text font-family="Helvetica" font-size="5" fill="#000000" xml:space="preserve" x="466" y="1487">isOver()</text>
	<text font-family="Helvetica" font-size="5" fill="#000000" xml:space="preserve" x="466" y="1500">setOver()</text>
	<text font-family="Helvetica" font-size="5" fill="#000000" xml:space="preserve" font-style="italic" x="466" y="1513">draw()</text>
	<text font-family="Helvetica" font-size="5" fill="#000000" xml:space="preserve" font-style="italic" x="466" y="1526">getSize()</text>
</g>
<g>
	<line stroke="black" stroke-opacity="1" x1="465" y1="1400" x2="419" y2="1305" />
</g>
<g>
	<line stroke="black" stroke-opacity="1" x1="309" y1="1242" x2="311" y2="1250" />
	<line stroke="black" stroke-opacity="1" x1="309" y1="1242" x2="317" y2="1239" />
	<line stroke="black" stroke-opacity="1" x1="419" y1="1305" x2="309" y2="1242" />
</g>
<g>
	<text font-family="Helvetica" font-size="5" fill="#000000" xml:space="preserve" x="320" y="1304">&lt;&lt;ArrayList&gt;&gt;</text>
</g>
<g>
	<line stroke="black" stroke-opacity="1" x1="309" y1="1262" x2="384" y2="1344" />
</g>
<g>
	<line stroke="black" stroke-opacity="1" x1="463" y1="1430" x2="463" y2="1421" />
	<line stroke="black" stroke-opacity="1" x1="463" y1="1430" x2="454" y2="1429" />
	<line stroke="black" stroke-opacity="1" x1="384" y1="1344" x2="463" y2="1430" />
</g>
<g>
	<line stroke="#000000" stroke-opacity="1" x1="302" y1="1657" x2="458" y2="1505" />
	<line stroke="#000000" stroke-opacity="1" x1="463" y1="1501" x2="454" y2="1500" />
	<line stroke="#000000" stroke-opacity="1" x1="463" y1="1501" x2="462" y2="1509" />
	<line stroke="#000000" stroke-opacity="1" x1="454" y1="1500" x2="462" y2="1509" />
</g>
<g>
	<line stroke="black" stroke-opacity="1" x1="279" y1="1629" x2="283" y2="1621" />
	<line stroke="black" stroke-opacity="1" x1="279" y1="1629" x2="271" y2="1624" />
	<line stroke="black" stroke-opacity="1" x1="234" y1="1463" x2="279" y2="1629" />
</g>
<g>
	<line stroke="black" stroke-opacity="1" x1="291" y1="1629" x2="297" y2="1623" />
	<line stroke="black" stroke-opacity="1" x1="291" y1="1629" x2="285" y2="1622" />
	<line stroke="black" stroke-opacity="1" x1="316" y1="1463" x2="291" y2="1629" />
</g>
<g>
	<line stroke="#000000" stroke-opacity="1" x1="431" y1="1615" x2="463" y2="1542" />
	<line stroke="#000000" stroke-opacity="1" x1="466" y1="1537" x2="458" y2="1540" />
	<line stroke="#000000" stroke-opacity="1" x1="466" y1="1537" x2="469" y2="1544" />
	<line stroke="#000000" stroke-opacity="1" x1="458" y1="1540" x2="469" y2="1544" />
</g>
<g>
	<line stroke="black" stroke-opacity="1" x1="384" y1="1615" x2="387" y2="1607" />
	<line stroke="black" stroke-opacity="1" x1="384" y1="1615" x2="376" y2="1611" />
	<line stroke="black" stroke-opacity="1" x1="326" y1="1463" x2="384" y2="1615" />
</g>
<g>
	<line stroke="black" stroke-opacity="1" x1="523" y1="1641" x2="521" y2="1632" />
	<line stroke="black" stroke-opacity="1" x1="523" y1="1641" x2="514" y2="1642" />
	<line stroke="black" stroke-opacity="1" x1="256" y1="1462" x2="523" y2="1641" />
</g>
<g>
	<line stroke="#000000" stroke-opacity="1" x1="270" y1="1088" x2="269" y2="875" />
	<line stroke="#000000" stroke-opacity="1" x1="269" y1="870" x2="263" y2="876" />
	<line stroke="#000000" stroke-opacity="1" x1="269" y1="870" x2="275" y2="875" />
	<line stroke="#000000" stroke-opacity="1" x1="263" y1="876" x2="275" y2="875" />
</g>
<g>
	<rect fill="#cbcbcb" stroke="none" stroke-opacity="1" x="165" y="798" width="2" height="222" />
	<rect fill="#cbcbcb" stroke="none" stroke-opacity="1" x="111" y="1018" width="56" height="2" />
	<rect fill="#c0ffc0" stroke="black" stroke-width="1" stroke-opacity="1" x="108" y="795" width="57" height="223" />
	<text font-family="Helvetica" font-size="5" fill="#000000" xml:space="preserve" font-weight="bold" text-anchor="middle" x="137" y="801">Courbe</text>
	<line stroke="black" stroke-opacity="1" x1="108" y1="809" x2="165" y2="809" />
	<text font-family="Helvetica" font-size="5" fill="#000000" xml:space="preserve" x="110" y="815">aX</text>
	<text font-family="Helvetica" font-size="5" fill="#000000" xml:space="preserve" x="110" y="828">bX</text>
	<text font-family="Helvetica" font-size="5" fill="#000000" xml:space="preserve" x="110" y="841">cX</text>
	<text font-family="Helvetica" font-size="5" fill="#000000" xml:space="preserve" x="110" y="854">aY</text>
	<text font-family="Helvetica" font-size="5" fill="#000000" xml:space="preserve" x="110" y="867">bY</text>
	<text font-family="Helvetica" font-size="5" fill="#000000" xml:space="preserve" x="110" y="880">cY</text>
	<text font-family="Helvetica" font-size="5" fill="#000000" xml:space="preserve" x="110" y="893">nbMaxY</text>
	<text font-family="Helvetica" font-size="5" fill="#000000" xml:space="preserve" x="110" y="906">nbMaxX</text>
	<line stroke="black" stroke-opacity="1" x1="108" y1="914" x2="165" y2="914" />
	<text font-family="Helvetica" font-size="5" fill="#000000" xml:space="preserve" x="110" y="920">Courbe()</text>
	<text font-family="Helvetica" font-size="5" fill="#000000" xml:space="preserve" x="110" y="933">Courbe()</text>
	<text font-family="Helvetica" font-size="5" fill="#000000" xml:space="preserve" x="110" y="946">Courbe()</text>
	<text font-family="Helvetica" font-size="5" fill="#000000" xml:space="preserve" x="110" y="959">getXenT()</text>
	<text font-family="Helvetica" font-size="5" fill="#000000" xml:space="preserve" x="110" y="972">getYenT()</text>
	<text font-family="Helvetica" font-size="5" fill="#000000" xml:space="preserve" x="110" y="985">calculDistance()</text>
	<text font-family="Helvetica" font-size="5" fill="#000000" xml:space="preserve" x="110" y="998">calculAngle()</text>
	<text font-family="Helvetica" font-size="5" fill="#000000" xml:space="preserve" x="110" y="1011">angleAenT()</text>
</g>
</svg>
